{
  "accessors": [
    {
      "bufferView": 2,
      "componentType": 5126,
      "count": 9231,
      "max": [
        0.27213823795318604,
        0.1150294616818428,
        0.22520186007022858
      ],
      "min": [
        -0.27518171072006226,
        -0.1150294616818428,
        -0.16259515285491943
      ],
      "type": "VEC3"
    },
    {
      "bufferView": 2,
      "byteOffset": 110772,
      "componentType": 5126,
      "count": 9231,
      "max": [
        1.0,
        1.0,
        1.0
      ],
      "min": [
        -1.0,
        -1.0,
        -1.0
      ],
      "type": "VEC3"
    },
    {
      "bufferView": 1,
      "componentType": 5126,
      "count": 9231,
      "max": [
        1.7138395309448242,
        1.691818118095398
      ],
      "min": [
        -0.7138395309448242,
        -0.7046672105789185
      ],
      "type": "VEC2"
    },
    {
      "bufferView": 0,
      "componentType": 5125,
      "count": 33906,
      "type": "SCALAR"
    }
  ],
  "asset": {
    "extras": {
      "author": "GameDevMoot (https://sketchfab.com/GameDevMoot)",
      "license": "CC-BY-4.0 (http://creativecommons.org/licenses/by/4.0/)",
      "source": "https://sketchfab.com/3d-models/ammo-box-7eeea926e21b41a4a55e7dfc9b156060",
      "title": "Ammo Box"
    },
    "generator": "Sketchfab-15.38.0",
    "version": "2.0"
  },
  "bufferViews": [
    {
      "buffer": 0,
      "byteLength": 135624,
      "name": "floatBufferViews",
      "target": 34963
    },
    {
      "buffer": 0,
      "byteLength": 73848,
      "byteOffset": 135624,
      "byteStride": 8,
      "name": "floatBufferViews",
      "target": 34962
    },
    {
      "buffer": 0,
      "byteLength": 221544,
      "byteOffset": 209472,
      "byteStride": 12,
      "name": "floatBufferViews",
      "target": 34962
    }
  ],
  "buffers": [
    {
      "byteLength": 431016,
      "uri": "scene.bin"
    }
  ],
  "extensionsUsed": [
    "KHR_materials_specular"
  ],
  "materials": [
    {
      "doubleSided": true,
      "extensions": {
        "KHR_materials_specular": {
          "specularColorFactor": [
            1.0,
            1.0,
            1.0
          ],
          "specularFactor": 0.09600029257232022
        }
      },
      "name": "Metal",
      "pbrMetallicRoughness": {
        "baseColorFactor": [
          0.014012348013997387,
          0.10829235995947611,
          0.0066268829263033836,
          1.0
        ],
        "metallicFactor": 0.8579073764796235,
        "roughnessFactor": 0.5687605905084663
      }
    }
  ],
  "meshes": [
    {
      "name": "Ammo_Box_Metal_0",
      "primitives": [
        {
          "attributes": {
            "NORMAL": 1,
            "POSITION": 0,
            "TEXCOORD_0": 2
          },
          "indices": 3,
          "material": 0,
          "mode": 4
        }
      ]
    }
  ],
  "nodes": [
    {
      "children": [
        1
      ],
      "matrix": [
        1.0,
        0.0,
        0.0,
        0.0,
        0.0,
        2.220446049250313e-16,
        -1.0,
        0.0,
        0.0,
        1.0,
        2.220446049250313e-16,
        0.0,
        0.0,
        0.0,
        0.0,
        1.0
      ],
      "name": "Sketchfab_model"
    },
    {
      "children": [
        2
      ],
      "matrix": [
        0.009999999776482582,
        0.0,
        0.0,
        0.0,
        0.0,
        0.0,
        0.009999999776482582,
        0.0,
        0.0,
        -0.009999999776482582,
        0.0,
        0.0,
        0.0,
        0.0,
        0.0,
        1.0
      ],
      "name": "ae30858e10bf40a0980ef38c7594ba75.fbx"
    },
    {
      "children": [
        3
      ],
      "name": "RootNode"
    },
    {
      "children": [
        4
      ],
      "matrix": [
        100.0,
        0.0,
        0.0,
        0.0,
        0.0,
        -1.629206793918314e-05,
        -99.99999999999868,
        0.0,
        0.0,
        99.99999999999868,
        -1.629206793918314e-05,
        0.0,
        0.0,
        0.0,
        0.0,
        1.0
      ],
      "name": "Ammo_Box"
    },
    {
      "mesh": 0,
      "name": "Ammo_Box_Metal_0"
    }
  ],
  "scene": 0,
  "scenes": [
    {
      "name": "Sketchfab_Scene",
      "nodes": [
        0
      ]
    }
  ]
}
