{
  "accessors": [
    {
      "bufferView": 2,
      "componentType": 5126,
      "count": 7640,
      "max": [
        -2314.884765625,
        1151.9129638671875,
        273.97943115234375
      ],
      "min": [
        -3248.053955078125,
        595.0404663085938,
        -188.3562774658203
      ],
      "type": "VEC3"
    },
    {
      "bufferView": 2,
      "byteOffset": 91680,
      "componentType": 5126,
      "count": 7640,
      "max": [
        0.9993658661842346,
        0.9999861717224121,
        0.9995453953742981
      ],
      "min": [
        -0.9991558194160461,
        -0.9979884624481201,
        -0.9956552982330322
      ],
      "type": "VEC3"
    },
    {
      "bufferView": 1,
      "componentType": 5126,
      "count": 7640,
      "max": [
        1.0,
        1.0
      ],
      "min": [
        0.0,
        0.0
      ],
      "type": "VEC2"
    },
    {
      "bufferView": 0,
      "componentType": 5125,
      "count": 7656,
      "type": "SCALAR"
    }
  ],
  "asset": {
    "extras": {
      "author": "7thFlare (https://sketchfab.com/7thFlare)",
      "license": "CC-BY-4.0 (http://creativecommons.org/licenses/by/4.0/)",
      "source": "https://sketchfab.com/3d-models/bush-6f1920d84d5445f9857da7ba8238fd38",
      "title": "Bush"
    },
    "generator": "Sketchfab-15.53.0",
    "version": "2.0"
  },
  "bufferViews": [
    {
      "buffer": 0,
      "byteLength": 30624,
      "name": "floatBufferViews",
      "target": 34963
    },
    {
      "buffer": 0,
      "byteLength": 61120,
      "byteOffset": 30624,
      "byteStride": 8,
      "name": "floatBufferViews",
      "target": 34962
    },
    {
      "buffer": 0,
      "byteLength": 183360,
      "byteOffset": 91744,
      "byteStride": 12,
      "name": "floatBufferViews",
      "target": 34962
    }
  ],
  "buffers": [
    {
      "byteLength": 275104,
      "uri": "scene.bin"
    }
  ],
  "images": [
    {
      "uri": "textures/Leaves_baseColor.png"
    }
  ],
  "materials": [
    {
      "alphaMode": "BLEND",
      "doubleSided": true,
      "name": "Leaves",
      "pbrMetallicRoughness": {
        "baseColorTexture": {
          "index": 0
        },
        "metallicFactor": 0.0,
        "roughnessFactor": 0.5836208262729943
      }
    }
  ],
  "meshes": [
    {
      "name": "leaves_Leaves_0.002_Leaves_0",
      "primitives": [
        {
          "attributes": {
            "NORMAL": 1,
            "POSITION": 0,
            "TEXCOORD_0": 2
          },
          "indices": 3,
          "material": 0,
          "mode": 4
        }
      ]
    }
  ],
  "nodes": [
    {
      "children": [
        1
      ],
      "matrix": [
        1.0,
        0.0,
        0.0,
        0.0,
        0.0,
        2.220446049250313e-16,
        -1.0,
        0.0,
        0.0,
        1.0,
        2.220446049250313e-16,
        0.0,
        0.0,
        0.0,
        0.0,
        1.0
      ],
      "name": "Sketchfab_model"
    },
    {
      "children": [
        2
      ],
      "matrix": [
        0.009999999776482582,
        0.0,
        0.0,
        0.0,
        0.0,
        0.0,
        0.009999999776482582,
        0.0,
        0.0,
        -0.009999999776482582,
        0.0,
        0.0,
        0.0,
        0.0,
        0.0,
        1.0
      ],
      "name": "2c86d536620d42589a9ae7103e537564.fbx"
    },
    {
      "children": [
        3
      ],
      "name": "RootNode"
    },
    {
      "children": [
        4
      ],
      "matrix": [
        0.2838907642628532,
        -0.10630354820110734,
        -8.53351447656125e-09,
        0.0,
        -0.10630354820110495,
        -0.2838907642628506,
        4.577300371513514e-08,
        0.0,
        -2.4043012998494544e-08,
        -3.987384535274798e-08,
        -0.30314099788665416,
        0.0,
        860.2572631835938,
        2.5953018848667853e-05,
        -1.341954650700694e-12,
        1.0
      ],
      "name": "leaves_Leaves_0.002"
    },
    {
      "mesh": 0,
      "name": "leaves_Leaves_0.002_Leaves_0"
    }
  ],
  "samplers": [
    {
      "magFilter": 9729,
      "minFilter": 9987,
      "wrapS": 10497,
      "wrapT": 10497
    }
  ],
  "scene": 0,
  "scenes": [
    {
      "name": "Sketchfab_Scene",
      "nodes": [
        0
      ]
    }
  ],
  "textures": [
    {
      "sampler": 0,
      "source": 0
    }
  ]
}
