{
  "accessors": [
    {
      "bufferView": 2,
      "componentType": 5126,
      "count": 26670,
      "max": [
        2493.5068359375,
        1869.21484375,
        1814.53466796875
      ],
      "min": [
        -247.21728515625,
        1127.885009765625,
        -1825.7685546875
      ],
      "type": "VEC3"
    },
    {
      "bufferView": 2,
      "byteOffset": 320040,
      "componentType": 5126,
      "count": 26670,
      "max": [
        0.9992308616638184,
        0.9999822974205017,
        1.0
      ],
      "min": [
        -0.9990914463996887,
        -0.9999719858169556,
        -1.0
      ],
      "type": "VEC3"
    },
    {
      "bufferView": 1,
      "componentType": 5126,
      "count": 26670,
      "max": [
        0.8730567097663879,
        1.051806926727295
      ],
      "min": [
        -0.5920577049255371,
        -0.4133074879646301
      ],
      "type": "VEC2"
    },
    {
      "bufferView": 0,
      "componentType": 5125,
      "count": 42672,
      "type": "SCALAR"
    },
    {
      "bufferView": 2,
      "byteOffset": 640080,
      "componentType": 5126,
      "count": 27271,
      "max": [
        2520.17578125,
        1764.918212890625,
        1787.68212890625
      ],
      "min": [
        -271.892822265625,
        -109.68531799316406,
        -1788.265380859375
      ],
      "type": "VEC3"
    },
    {
      "bufferView": 2,
      "byteOffset": 967332,
      "componentType": 5126,
      "count": 27271,
      "max": [
        1.0,
        1.0,
        1.0
      ],
      "min": [
        -1.0,
        -1.0,
        -1.0
      ],
      "type": "VEC3"
    },
    {
      "bufferView": 3,
      "componentType": 5126,
      "count": 27271,
      "max": [
        1.0,
        1.0,
        1.0,
        1.0
      ],
      "min": [
        -1.0,
        -1.0,
        -1.0,
        -1.0
      ],
      "type": "VEC4"
    },
    {
      "bufferView": 1,
      "byteOffset": 213360,
      "componentType": 5126,
      "count": 27271,
      "max": [
        4.211873531341553,
        25.492618560791016
      ],
      "min": [
        -0.4014251232147217,
        -25.62550163269043
      ],
      "type": "VEC2"
    },
    {
      "bufferView": 1,
      "byteOffset": 431528,
      "componentType": 5126,
      "count": 27271,
      "max": [
        4.211873531341553,
        25.492618560791016
      ],
      "min": [
        -0.4014251232147217,
        -25.62550163269043
      ],
      "type": "VEC2"
    },
    {
      "bufferView": 0,
      "byteOffset": 170688,
      "componentType": 5125,
      "count": 147348,
      "type": "SCALAR"
    },
    {
      "bufferView": 2,
      "byteOffset": 1294584,
      "componentType": 5126,
      "count": 24,
      "max": [
        1937.220947265625,
        835.2633666992188,
        -1723.5517578125
      ],
      "min": [
        1577.368408203125,
        486.998291015625,
        -1724.5517578125
      ],
      "type": "VEC3"
    },
    {
      "bufferView": 2,
      "byteOffset": 1294872,
      "componentType": 5126,
      "count": 24,
      "max": [
        1.0,
        1.0,
        1.0
      ],
      "min": [
        -1.0,
        -1.0,
        -1.0
      ],
      "type": "VEC3"
    },
    {
      "bufferView": 1,
      "byteOffset": 649696,
      "componentType": 5126,
      "count": 24,
      "max": [
        0.875,
        1.0
      ],
      "min": [
        0.125,
        0.0
      ],
      "type": "VEC2"
    },
    {
      "bufferView": 0,
      "byteOffset": 760080,
      "componentType": 5125,
      "count": 36,
      "type": "SCALAR"
    },
    {
      "bufferView": 2,
      "byteOffset": 1295160,
      "componentType": 5126,
      "count": 2272,
      "max": [
        2294.580810546875,
        847.0360107421875,
        1666.0933837890625
      ],
      "min": [
        1528.133056640625,
        34.42898178100586,
        -1789.9404296875
      ],
      "type": "VEC3"
    },
    {
      "bufferView": 2,
      "byteOffset": 1322424,
      "componentType": 5126,
      "count": 2272,
      "max": [
        1.0,
        1.0,
        1.0
      ],
      "min": [
        -1.0,
        -1.0,
        -1.0
      ],
      "type": "VEC3"
    },
    {
      "bufferView": 3,
      "byteOffset": 436336,
      "componentType": 5126,
      "count": 2272,
      "max": [
        0.9999942779541016,
        1.0,
        1.0,
        1.0
      ],
      "min": [
        -0.9999945163726807,
        -1.0,
        -1.0,
        -1.0
      ],
      "type": "VEC4"
    },
    {
      "bufferView": 1,
      "byteOffset": 649888,
      "componentType": 5126,
      "count": 2272,
      "max": [
        4.351367473602295,
        4.745799541473389
      ],
      "min": [
        -3.434479236602783,
        -3.7457990646362305
      ],
      "type": "VEC2"
    },
    {
      "bufferView": 1,
      "byteOffset": 668064,
      "componentType": 5126,
      "count": 2272,
      "max": [
        4.351367473602295,
        4.745799541473389
      ],
      "min": [
        -3.434479236602783,
        -3.7457990646362305
      ],
      "type": "VEC2"
    },
    {
      "bufferView": 0,
      "byteOffset": 760224,
      "componentType": 5125,
      "count": 4776,
      "type": "SCALAR"
    },
    {
      "bufferView": 2,
      "byteOffset": 1349688,
      "componentType": 5126,
      "count": 883,
      "max": [
        2154.8759765625,
        419.66033935546875,
        451.4920654296875
      ],
      "min": [
        1603.262939453125,
        -0.5,
        -1974.501708984375
      ],
      "type": "VEC3"
    },
    {
      "bufferView": 2,
      "byteOffset": 1360284,
      "componentType": 5126,
      "count": 883,
      "max": [
        1.0,
        1.0,
        1.0
      ],
      "min": [
        -1.0,
        -1.0,
        -1.0
      ],
      "type": "VEC3"
    },
    {
      "bufferView": 1,
      "byteOffset": 686240,
      "componentType": 5126,
      "count": 883,
      "max": [
        0.875,
        1.0
      ],
      "min": [
        -1.7670705318450928,
        -1.991231918334961
      ],
      "type": "VEC2"
    },
    {
      "bufferView": 0,
      "byteOffset": 779328,
      "componentType": 5125,
      "count": 2916,
      "type": "SCALAR"
    },
    {
      "bufferView": 2,
      "byteOffset": 1370880,
      "componentType": 5126,
      "count": 408,
      "max": [
        2237.02392578125,
        387.89801025390625,
        541.429443359375
      ],
      "min": [
        7.1224365234375,
        -0.303314208984375,
        -1556.009033203125
      ],
      "type": "VEC3"
    },
    {
      "bufferView": 2,
      "byteOffset": 1375776,
      "componentType": 5126,
      "count": 408,
      "max": [
        1.0,
        1.0,
        1.0
      ],
      "min": [
        -1.0,
        -1.0,
        -1.0
      ],
      "type": "VEC3"
    },
    {
      "bufferView": 1,
      "byteOffset": 693304,
      "componentType": 5126,
      "count": 408,
      "max": [
        5.144732475280762,
        5.891247272491455
      ],
      "min": [
        -4.271448135375977,
        -4.891247272491455
      ],
      "type": "VEC2"
    },
    {
      "bufferView": 1,
      "byteOffset": 696568,
      "componentType": 5126,
      "count": 408,
      "max": [
        5.144732475280762,
        5.891247272491455
      ],
      "min": [
        -4.271448135375977,
        -4.891247272491455
      ],
      "type": "VEC2"
    },
    {
      "bufferView": 0,
      "byteOffset": 790992,
      "componentType": 5125,
      "count": 1464,
      "type": "SCALAR"
    },
    {
      "bufferView": 2,
      "byteOffset": 1380672,
      "componentType": 5126,
      "count": 480,
      "max": [
        2263.32373046875,
        577.1276245117188,
        -118.76004028320313
      ],
      "min": [
        1817.9710693359375,
        403.8686828613281,
        -592.9588623046875
      ],
      "type": "VEC3"
    },
    {
      "bufferView": 2,
      "byteOffset": 1386432,
      "componentType": 5126,
      "count": 480,
      "max": [
        0.9347745180130005,
        1.0,
        0.9588376879692078
      ],
      "min": [
        -0.9588376879692078,
        -0.9999886155128479,
        -0.9588378071784973
      ],
      "type": "VEC3"
    },
    {
      "bufferView": 1,
      "byteOffset": 699832,
      "componentType": 5126,
      "count": 480,
      "max": [
        3.2552897930145264,
        2.945071220397949
      ],
      "min": [
        -2.2595109939575195,
        -2.0415401458740234
      ],
      "type": "VEC2"
    },
    {
      "bufferView": 1,
      "byteOffset": 703672,
      "componentType": 5126,
      "count": 480,
      "max": [
        3.2552897930145264,
        2.945071220397949
      ],
      "min": [
        -2.2595109939575195,
        -2.0415401458740234
      ],
      "type": "VEC2"
    },
    {
      "bufferView": 0,
      "byteOffset": 796848,
      "componentType": 5125,
      "count": 1476,
      "type": "SCALAR"
    },
    {
      "bufferView": 2,
      "byteOffset": 1392192,
      "componentType": 5126,
      "count": 38,
      "max": [
        2249.9638671875,
        786.2726440429688,
        1554.8455810546875
      ],
      "min": [
        1662.6309814453125,
        365.6752014160156,
        -579.2095336914063
      ],
      "type": "VEC3"
    },
    {
      "bufferView": 2,
      "byteOffset": 1392648,
      "componentType": 5126,
      "count": 38,
      "max": [
        0.9965651631355286,
        0.7069515585899353,
        0.9965665340423584
      ],
      "min": [
        -0.8224858641624451,
        -0.7069729566574097,
        -0.08281271159648895
      ],
      "type": "VEC3"
    },
    {
      "bufferView": 1,
      "byteOffset": 707512,
      "componentType": 5126,
      "count": 38,
      "max": [
        1.206770658493042,
        1.3303031921386719
      ],
      "min": [
        -0.8082724213600159,
        -1.9931327104568481
      ],
      "type": "VEC2"
    },
    {
      "bufferView": 0,
      "byteOffset": 802752,
      "componentType": 5125,
      "count": 54,
      "type": "SCALAR"
    },
    {
      "bufferView": 2,
      "byteOffset": 1393104,
      "componentType": 5126,
      "count": 840,
      "max": [
        718.5828857421875,
        325.1803894042969,
        1668.08349609375
      ],
      "min": [
        237.92889404296875,
        109.39212036132813,
        1373.173583984375
      ],
      "type": "VEC3"
    },
    {
      "bufferView": 2,
      "byteOffset": 1403184,
      "componentType": 5126,
      "count": 840,
      "max": [
        0.9327458739280701,
        1.0,
        0.9990842938423157
      ],
      "min": [
        -0.932746171951294,
        -1.0,
        -0.9990841150283813
      ],
      "type": "VEC3"
    },
    {
      "bufferView": 1,
      "byteOffset": 707816,
      "componentType": 5126,
      "count": 840,
      "max": [
        0.8394559621810913,
        1.0109306573867798
      ],
      "min": [
        0.16054382920265198,
        -0.009990811347961426
      ],
      "type": "VEC2"
    },
    {
      "bufferView": 1,
      "byteOffset": 714536,
      "componentType": 5126,
      "count": 840,
      "max": [
        0.8394559621810913,
        1.0109306573867798
      ],
      "min": [
        0.16054382920265198,
        -0.009990811347961426
      ],
      "type": "VEC2"
    },
    {
      "bufferView": 0,
      "byteOffset": 802968,
      "componentType": 5125,
      "count": 4560,
      "type": "SCALAR"
    },
    {
      "bufferView": 2,
      "byteOffset": 1413264,
      "componentType": 5126,
      "count": 32,
      "max": [
        2162.329345703125,
        786.2726440429688,
        1546.827880859375
      ],
      "min": [
        1653.193603515625,
        365.6752014160156,
        945.4465942382813
      ],
      "type": "VEC3"
    },
    {
      "bufferView": 2,
      "byteOffset": 1413648,
      "componentType": 5126,
      "count": 32,
      "max": [
        -0.06738479435443878,
        0.7071430683135986,
        0.08312026411294937
      ],
      "min": [
        -0.9965395927429199,
        -0.707195520401001,
        -0.9965792894363403
      ],
      "type": "VEC3"
    },
    {
      "bufferView": 1,
      "byteOffset": 721256,
      "componentType": 5126,
      "count": 32,
      "max": [
        0.984275221824646,
        0.9720522165298462
      ],
      "min": [
        0.024646775797009468,
        0.009428680874407291
      ],
      "type": "VEC2"
    },
    {
      "bufferView": 0,
      "byteOffset": 821208,
      "componentType": 5125,
      "count": 42,
      "type": "SCALAR"
    },
    {
      "bufferView": 2,
      "byteOffset": 1414032,
      "componentType": 5126,
      "count": 23102,
      "max": [
        1083.973876953125,
        2056.7294921875,
        2309.466552734375
      ],
      "min": [
        160.77862548828125,
        -105.40333557128906,
        1297.06689453125
      ],
      "type": "VEC3"
    },
    {
      "bufferView": 2,
      "byteOffset": 1691256,
      "componentType": 5126,
      "count": 23102,
      "max": [
        0.9999692440032959,
        0.9999117255210876,
        0.9999598860740662
      ],
      "min": [
        -0.9997305274009705,
        -0.9990290403366089,
        -0.9982107877731323
      ],
      "type": "VEC3"
    },
    {
      "bufferView": 1,
      "byteOffset": 721512,
      "componentType": 5126,
      "count": 23102,
      "max": [
        1.8927102088928223,
        0.7387025356292725
      ],
      "min": [
        0.9304131269454956,
        -0.23858220875263214
      ],
      "type": "VEC2"
    },
    {
      "bufferView": 1,
      "byteOffset": 906328,
      "componentType": 5126,
      "count": 23102,
      "max": [
        1.8927102088928223,
        0.7387025356292725
      ],
      "min": [
        0.9304131269454956,
        -0.23858220875263214
      ],
      "type": "VEC2"
    },
    {
      "bufferView": 0,
      "byteOffset": 821376,
      "componentType": 5125,
      "count": 201240,
      "type": "SCALAR"
    },
    {
      "bufferView": 2,
      "byteOffset": 1968480,
      "componentType": 5126,
      "count": 236,
      "max": [
        867.75732421875,
        884.58544921875,
        -1604.079833984375
      ],
      "min": [
        324.344970703125,
        26.3782958984375,
        -1736.7322998046875
      ],
      "type": "VEC3"
    },
    {
      "bufferView": 2,
      "byteOffset": 1971312,
      "componentType": 5126,
      "count": 236,
      "max": [
        1.0,
        1.0,
        1.0
      ],
      "min": [
        -1.0,
        -1.0,
        -1.0
      ],
      "type": "VEC3"
    },
    {
      "bufferView": 3,
      "byteOffset": 472688,
      "componentType": 5126,
      "count": 236,
      "max": [
        1.0,
        0.9047175645828247,
        1.0,
        1.0
      ],
      "min": [
        -0.6985122561454773,
        -0.8979707360267639,
        -1.0,
        -1.0
      ],
      "type": "VEC4"
    },
    {
      "bufferView": 1,
      "byteOffset": 1091144,
      "componentType": 5126,
      "count": 236,
      "max": [
        3.5329957008361816,
        3.2874529361724854
      ],
      "min": [
        -1.5470713376998901,
        -2.356846332550049
      ],
      "type": "VEC2"
    },
    {
      "bufferView": 1,
      "byteOffset": 1093032,
      "componentType": 5126,
      "count": 236,
      "max": [
        3.5329957008361816,
        3.2874529361724854
      ],
      "min": [
        -1.5470713376998901,
        -2.356846332550049
      ],
      "type": "VEC2"
    },
    {
      "bufferView": 0,
      "byteOffset": 1626336,
      "componentType": 5125,
      "count": 396,
      "type": "SCALAR"
    }
  ],
  "asset": {
    "extras": {
      "author": "AmeronRandhawa (https://sketchfab.com/20003282)",
      "license": "CC-BY-4.0 (http://creativecommons.org/licenses/by/4.0/)",
      "source": "https://sketchfab.com/3d-models/abandon-cabin-project-broken-roof-a7d212d106da4fca93400138d19fbbcd",
      "title": "Abandon Cabin Project (broken roof)"
    },
    "generator": "Sketchfab-12.68.0",
    "version": "2.0"
  },
  "bufferViews": [
    {
      "buffer": 0,
      "byteLength": 1627920,
      "name": "floatBufferViews",
      "target": 34963
    },
    {
      "buffer": 0,
      "byteLength": 1094920,
      "byteOffset": 1627920,
      "byteStride": 8,
      "name": "floatBufferViews",
      "target": 34962
    },
    {
      "buffer": 0,
      "byteLength": 1974144,
      "byteOffset": 2722840,
      "byteStride": 12,
      "name": "floatBufferViews",
      "target": 34962
    },
    {
      "buffer": 0,
      "byteLength": 476464,
      "byteOffset": 4696984,
      "byteStride": 16,
      "name": "floatBufferViews",
      "target": 34962
    }
  ],
  "buffers": [
    {
      "byteLength": 5173448,
      "uri": "scene.bin"
    }
  ],
  "images": [
    {
      "uri": "textures/material_baseColor.png"
    },
    {
      "uri": "textures/material_normal.png"
    },
    {
      "uri": "textures/wood_planks_baseColor.png"
    },
    {
      "uri": "textures/wood_planks_normal.png"
    },
    {
      "uri": "textures/computer_plastic_baseColor.png"
    },
    {
      "uri": "textures/blank_board_baseColor.png"
    },
    {
      "uri": "textures/burnt_fire_wood_baseColor.png"
    },
    {
      "uri": "textures/black_board_baseColor.png"
    },
    {
      "uri": "textures/rock1_baseColor.png"
    }
  ],
  "materials": [
    {
      "doubleSided": true,
      "name": "Shingle",
      "pbrMetallicRoughness": {
        "baseColorFactor": [
          0.317,
          0.255746,
          0.217462,
          1.0
        ],
        "metallicFactor": 0.0,
        "roughnessFactor": 0.973958835337813
      }
    },
    {
      "doubleSided": true,
      "name": "material",
      "normalTexture": {
        "index": 1
      },
      "pbrMetallicRoughness": {
        "baseColorTexture": {
          "index": 0
        },
        "metallicFactor": 0.0,
        "roughnessFactor": 0.9668774222242189
      }
    },
    {
      "doubleSided": true,
      "name": "glass",
      "pbrMetallicRoughness": {
        "baseColorFactor": [
          0.5,
          0.5,
          0.5,
          1.0
        ],
        "metallicFactor": 0.0,
        "roughnessFactor": 0.8942628736559436
      }
    },
    {
      "doubleSided": true,
      "name": "wood_planks",
      "normalTexture": {
        "index": 3
      },
      "pbrMetallicRoughness": {
        "baseColorTexture": {
          "index": 2
        },
        "metallicFactor": 0.0,
        "roughnessFactor": 0.8942628736559436
      }
    },
    {
      "doubleSided": true,
      "name": "lambert1",
      "pbrMetallicRoughness": {
        "baseColorFactor": [
          0.5,
          0.5,
          0.5,
          1.0
        ],
        "metallicFactor": 0.0,
        "roughnessFactor": 0.6
      }
    },
    {
      "doubleSided": true,
      "name": "wood_funashing",
      "pbrMetallicRoughness": {
        "baseColorTexture": {
          "index": 2
        },
        "metallicFactor": 0.0,
        "roughnessFactor": 0.8942628736559436
      }
    },
    {
      "doubleSided": true,
      "name": "computer_plastic",
      "pbrMetallicRoughness": {
        "baseColorTexture": {
          "index": 4
        },
        "metallicFactor": 0.0,
        "roughnessFactor": 0.8942628736559436
      }
    },
    {
      "doubleSided": true,
      "name": "blank_board",
      "pbrMetallicRoughness": {
        "baseColorTexture": {
          "index": 5
        },
        "metallicFactor": 0.0,
        "roughnessFactor": 0.8942628736559436
      }
    },
    {
      "doubleSided": true,
      "name": "burnt_fire_wood",
      "pbrMetallicRoughness": {
        "baseColorTexture": {
          "index": 6
        },
        "metallicFactor": 0.0,
        "roughnessFactor": 0.98343875340696
      }
    },
    {
      "doubleSided": true,
      "name": "black_board",
      "pbrMetallicRoughness": {
        "baseColorTexture": {
          "index": 7
        },
        "metallicFactor": 0.0,
        "roughnessFactor": 0.8942628736559436
      }
    },
    {
      "doubleSided": true,
      "name": "rock1",
      "pbrMetallicRoughness": {
        "baseColorTexture": {
          "index": 8
        },
        "metallicFactor": 0.0,
        "roughnessFactor": 0.9875087585411124
      }
    },
    {
      "doubleSided": true,
      "name": "wood",
      "normalTexture": {
        "index": 3
      },
      "pbrMetallicRoughness": {
        "baseColorTexture": {
          "index": 2
        },
        "metallicFactor": 0.0,
        "roughnessFactor": 0.8942628736559436
      }
    }
  ],
  "meshes": [
    {
      "name": "polySurface948_Shingle_0",
      "primitives": [
        {
          "attributes": {
            "NORMAL": 1,
            "POSITION": 0,
            "TEXCOORD_0": 2
          },
          "indices": 3,
          "material": 0,
          "mode": 4
        }
      ]
    },
    {
      "name": "polySurface948_Log_0",
      "primitives": [
        {
          "attributes": {
            "NORMAL": 5,
            "POSITION": 4,
            "TANGENT": 6,
            "TEXCOORD_0": 7,
            "TEXCOORD_1": 8
          },
          "indices": 9,
          "material": 1,
          "mode": 4
        }
      ]
    },
    {
      "name": "polySurface948_glass_0",
      "primitives": [
        {
          "attributes": {
            "NORMAL": 11,
            "POSITION": 10,
            "TEXCOORD_0": 12
          },
          "indices": 13,
          "material": 2,
          "mode": 4
        }
      ]
    },
    {
      "name": "polySurface948_wood_planks_0",
      "primitives": [
        {
          "attributes": {
            "NORMAL": 15,
            "POSITION": 14,
            "TANGENT": 16,
            "TEXCOORD_0": 17,
            "TEXCOORD_1": 18
          },
          "indices": 19,
          "material": 3,
          "mode": 4
        }
      ]
    },
    {
      "name": "polySurface948_lambert1_0",
      "primitives": [
        {
          "attributes": {
            "NORMAL": 21,
            "POSITION": 20,
            "TEXCOORD_0": 22
          },
          "indices": 23,
          "material": 4,
          "mode": 4
        }
      ]
    },
    {
      "name": "polySurface948_wood_funashing_0",
      "primitives": [
        {
          "attributes": {
            "NORMAL": 25,
            "POSITION": 24,
            "TEXCOORD_0": 26,
            "TEXCOORD_1": 27
          },
          "indices": 28,
          "material": 5,
          "mode": 4
        }
      ]
    },
    {
      "name": "polySurface948_computer_plastic_0",
      "primitives": [
        {
          "attributes": {
            "NORMAL": 30,
            "POSITION": 29,
            "TEXCOORD_0": 31,
            "TEXCOORD_1": 32
          },
          "indices": 33,
          "material": 6,
          "mode": 4
        }
      ]
    },
    {
      "name": "polySurface948_blank_board_0",
      "primitives": [
        {
          "attributes": {
            "NORMAL": 35,
            "POSITION": 34,
            "TEXCOORD_0": 36
          },
          "indices": 37,
          "material": 7,
          "mode": 4
        }
      ]
    },
    {
      "name": "polySurface948_burnt_fire_wood_0",
      "primitives": [
        {
          "attributes": {
            "NORMAL": 39,
            "POSITION": 38,
            "TEXCOORD_0": 40,
            "TEXCOORD_1": 41
          },
          "indices": 42,
          "material": 8,
          "mode": 4
        }
      ]
    },
    {
      "name": "polySurface948_black_board_0",
      "primitives": [
        {
          "attributes": {
            "NORMAL": 44,
            "POSITION": 43,
            "TEXCOORD_0": 45
          },
          "indices": 46,
          "material": 9,
          "mode": 4
        }
      ]
    },
    {
      "name": "polySurface948_rock1_0",
      "primitives": [
        {
          "attributes": {
            "NORMAL": 48,
            "POSITION": 47,
            "TEXCOORD_0": 49,
            "TEXCOORD_1": 50
          },
          "indices": 51,
          "material": 10,
          "mode": 4
        }
      ]
    },
    {
      "name": "polySurface948_wood_0",
      "primitives": [
        {
          "attributes": {
            "NORMAL": 53,
            "POSITION": 52,
            "TANGENT": 54,
            "TEXCOORD_0": 55,
            "TEXCOORD_1": 56
          },
          "indices": 57,
          "material": 11,
          "mode": 4
        }
      ]
    }
  ],
  "nodes": [
    {
      "children": [
        1
      ],
      "matrix": [
        1.0,
        0.0,
        0.0,
        0.0,
        0.0,
        2.220446049250313e-16,
        -1.0,
        0.0,
        0.0,
        1.0,
        2.220446049250313e-16,
        0.0,
        0.0,
        0.0,
        0.0,
        1.0
      ],
      "name": "Sketchfab_model"
    },
    {
      "children": [
        2
      ],
      "matrix": [
        0.009999999776482582,
        0.0,
        0.0,
        0.0,
        0.0,
        0.0,
        0.009999999776482582,
        0.0,
        0.0,
        -0.009999999776482582,
        0.0,
        0.0,
        0.0,
        0.0,
        0.0,
        1.0
      ],
      "name": "c45b4275cc424fc6bd9436b81ae80aba.fbx"
    },
    {
      "children": [
        3
      ],
      "name": "RootNode"
    },
    {
      "children": [
        4,
        5,
        6,
        7,
        8,
        9,
        10,
        11,
        12,
        13,
        14,
        15
      ],
      "name": "polySurface948"
    },
    {
      "mesh": 0,
      "name": "polySurface948_Shingle_0"
    },
    {
      "mesh": 1,
      "name": "polySurface948_Log_0"
    },
    {
      "mesh": 2,
      "name": "polySurface948_glass_0"
    },
    {
      "mesh": 3,
      "name": "polySurface948_wood_planks_0"
    },
    {
      "mesh": 4,
      "name": "polySurface948_lambert1_0"
    },
    {
      "mesh": 5,
      "name": "polySurface948_wood_funashing_0"
    },
    {
      "mesh": 6,
      "name": "polySurface948_computer_plastic_0"
    },
    {
      "mesh": 7,
      "name": "polySurface948_blank_board_0"
    },
    {
      "mesh": 8,
      "name": "polySurface948_burnt_fire_wood_0"
    },
    {
      "mesh": 9,
      "name": "polySurface948_black_board_0"
    },
    {
      "mesh": 10,
      "name": "polySurface948_rock1_0"
    },
    {
      "mesh": 11,
      "name": "polySurface948_wood_0"
    }
  ],
  "samplers": [
    {
      "magFilter": 9729,
      "minFilter": 9987,
      "wrapS": 10497,
      "wrapT": 10497
    }
  ],
  "scene": 0,
  "scenes": [
    {
      "name": "Sketchfab_Scene",
      "nodes": [
        0
      ]
    }
  ],
  "textures": [
    {
      "sampler": 0,
      "source": 0
    },
    {
      "sampler": 0,
      "source": 1
    },
    {
      "sampler": 0,
      "source": 2
    },
    {
      "sampler": 0,
      "source": 3
    },
    {
      "sampler": 0,
      "source": 4
    },
    {
      "sampler": 0,
      "source": 5
    },
    {
      "sampler": 0,
      "source": 6
    },
    {
      "sampler": 0,
      "source": 7
    },
    {
      "sampler": 0,
      "source": 8
    }
  ]
}
